<svg xmlns="http://www.w3.org/2000/svg" viewBox="0 0 100 100" aria-label="Invincible Mark">
  <!-- Bull horns mark (white) — collapsed sidebar ke liye compact -->
  <g transform="translate(0, 14) scale(0.4166)" fill="#ffffff">
    <path d="M 116 58 C 78 46 42 26 8 6 C 38 34 72 58 104 70 C 113 72 118 65 116 58 Z"/>
    <path d="M 124 58 C 162 46 198 26 232 6 C 202 34 168 58 136 70 C 127 72 122 65 124 58 Z"/>
    <path d="M 102 62 L 112 67 L 120 64 L 128 67 L 138 62 L 120 112 Z"/>
  </g>
  <!-- Neeche chhoti tricolor bars -->
  <rect x="14" y="80" width="30" height="7" rx="2" fill="#f57c00"/>
  <rect x="56" y="80" width="30" height="7" rx="2" fill="#43a047"/>
</svg>
