<svg xmlns="http://www.w3.org/2000/svg" viewBox="-1 -1.5 257.5 54" aria-label="Invincible Logo">
  <!-- EXACT original logo — PDF (logo.pdf) se vector paths extract kiye gaye -->
  <path d="M 0.09 0.42 H 6.38 V 40.44 H 0.09 Z M 24.39 40.44 L 30.85 40.44 L 30.85 0.42 L 25.24 0.42 L 25.24 24.37 L 25.13 24.37 L 18.78 0.42 L 10.89 0.42 L 10.89 40.44 L 16.55 40.44 L 16.55 11.45 L 16.67 11.45 L 24.39 40.44 M 40.05 0.42 L 33.71 0.42 L 39.88 40.44 L 49.26 40.44 L 55.43 0.42 L 49.66 0.42 L 44.91 33.06 L 44.8 33.06 L 40.05 0.42 M 58.35 0.42 H 64.63 V 40.44 H 58.35 Z M 82.65 40.44 L 89.11 40.44 L 89.11 0.42 L 83.5 0.42 L 83.5 24.37 L 83.39 24.37 L 77.04 0.42 L 69.15 0.42 L 69.15 40.44 L 74.81 40.44 L 74.81 11.45 L 74.93 11.45 L 82.65 40.44 M 105.92 25.51 L 105.92 31.23 C 105.92 34.09 104.66 35.12 102.66 35.12 C 100.66 35.12 99.4 34.09 99.4 31.23 L 99.4 9.62 C 99.4 6.76 100.66 5.68 102.66 5.68 C 104.66 5.68 105.92 6.76 105.92 9.62 L 105.92 13.91 L 111.86 13.91 L 111.86 10.02 C 111.86 3.62 108.66 -0.04 102.49 -0.04 C 96.31 -0.04 93.11 3.62 93.11 10.02 L 93.11 30.83 C 93.11 37.24 96.31 40.89 102.49 40.89 C 108.66 40.89 111.86 37.24 111.86 30.83 L 111.86 25.51 L 105.92 25.51 M 115.69 0.42 H 121.98 V 40.44 H 115.69 Z M 136.04 0.42 L 126.56 0.42 L 126.56 40.44 L 136.45 40.44 C 142.74 40.44 145.99 37.12 145.99 30.95 L 145.99 27.69 C 145.99 23.45 144.68 20.48 141.3 19.17 L 141.3 19.05 C 144.11 17.74 145.36 15.17 145.36 11.05 L 145.36 9.62 C 145.36 3.45 142.56 0.42 136.04 0.42 M 135.64 22.43 C 138.5 22.43 139.71 23.57 139.71 27.29 L 139.71 30.78 C 139.71 33.75 138.56 34.72 136.45 34.72 L 132.84 34.72 L 132.84 22.43 L 135.64 22.43 M 135.87 6.13 C 138.1 6.13 139.08 7.39 139.08 10.25 L 139.08 12.48 C 139.08 15.68 137.65 16.71 135.3 16.71 L 132.84 16.71 L 132.84 6.13 L 135.87 6.13 M 149.77 40.44 L 166.4 40.44 L 166.4 34.72 L 156.06 34.72 L 156.06 0.42 L 149.77 0.42 L 149.77 40.44 M 175.44 6.13 L 186.3 6.13 L 186.3 0.42 L 169.15 0.42 L 169.15 40.44 L 186.3 40.44 L 186.3 34.72 L 175.44 34.72 L 175.44 23 L 184.07 23 L 184.07 17.28 L 175.44 17.28 L 175.44 6.13" fill="#ffffff"/>
  <path d="M 254.67 1.53 C 254.31 2.19 253.85 2.93 253.45 3.59 C 253.04 4.24 252.67 4.81 252.25 5.45 C 251.82 6.09 251.32 6.81 250.88 7.4 C 250.44 7.99 250.07 8.47 249.5 9.11 C 248.94 9.75 248.2 10.56 247.42 11.38 C 246.65 12.21 245.84 13.04 245.16 13.69 C 244.48 14.33 243.92 14.79 243.39 15.25 C 242.86 15.7 242.36 16.16 241.68 16.72 C 241.01 17.28 240.16 17.93 239.34 18.56 C 238.53 19.19 237.75 19.78 237.06 20.32 C 236.37 20.86 235.77 21.35 235.18 21.82 C 234.6 22.3 234.04 22.76 233.68 23.05 C 233.32 23.36 233.16 23.5 233.09 23.63 C 233.02 23.75 233.05 23.85 233.09 24.16 C 233.13 24.46 233.18 24.95 233.27 25.53 C 233.36 26.1 233.48 26.75 233.6 27.34 C 233.71 27.94 233.82 28.47 233.88 28.96 C 233.95 29.46 233.95 29.89 233.93 30.27 C 233.91 30.65 233.86 30.96 233.76 31.23 C 233.66 31.51 233.49 31.74 232.98 32.25 C 232.47 32.76 231.6 33.54 230.93 34.15 C 230.26 34.76 229.79 35.18 228.98 35.87 C 228.17 36.55 227.02 37.5 226.03 38.29 C 225.03 39.08 224.2 39.72 223.74 40.12 C 223.55 40.29 223.42 40.42 223.33 40.4 C 223.24 40.42 223.12 40.29 222.93 40.12 C 222.47 39.72 221.63 39.08 220.64 38.29 C 219.65 37.5 218.5 36.55 217.69 35.87 C 216.88 35.18 216.4 34.76 215.73 34.15 C 215.06 33.54 214.2 32.76 213.68 32.25 C 213.17 31.74 213.01 31.51 212.9 31.23 C 212.8 30.96 212.75 30.65 212.73 30.27 C 212.71 29.89 212.72 29.46 212.78 28.96 C 212.84 28.47 212.95 27.94 213.07 27.34 C 213.19 26.75 213.31 26.1 213.39 25.53 C 213.48 24.95 213.54 24.46 213.58 24.16 C 213.62 23.85 213.64 23.75 213.57 23.63 C 213.51 23.5 213.34 23.36 212.98 23.05 C 212.62 22.76 212.06 22.3 211.48 21.82 C 210.9 21.35 210.29 20.86 209.6 20.32 C 208.91 19.78 208.13 19.19 207.32 18.56 C 206.5 17.93 205.65 17.28 204.98 16.72 C 204.31 16.16 203.81 15.7 203.28 15.25 C 202.75 14.79 202.19 14.33 201.5 13.69 C 200.82 13.04 200.02 12.21 199.24 11.38 C 198.47 10.56 197.72 9.75 197.16 9.11 C 196.6 8.47 196.22 7.99 195.78 7.4 C 195.35 6.81 194.85 6.09 194.42 5.45 C 193.99 4.81 193.63 4.24 193.22 3.59 C 192.81 2.93 192.35 2.19 191.99 1.53 C 191.63 0.87 191.36 0.29 191.49 0.25 C 191.62 0.21 192.14 0.73 192.84 1.43 C 193.55 2.12 194.43 3.01 195.56 3.99 C 196.68 4.98 198.04 6.07 199.32 7.03 C 200.61 7.98 201.8 8.8 203.2 9.71 C 204.59 10.62 206.19 11.64 207.83 12.56 C 209.46 13.47 211.13 14.3 212.7 15.08 C 214.26 15.87 215.72 16.62 216.75 17.16 C 217.78 17.7 218.39 18.04 218.81 18.29 C 219.23 18.54 219.47 18.69 219.59 18.77 C 219.7 18.84 219.69 18.82 219.62 19.36 C 219.54 19.88 219.38 20.96 219.25 21.83 C 219.11 22.7 218.99 23.38 218.89 24.12 C 218.79 24.85 218.71 25.64 218.66 26.18 C 218.6 26.72 218.58 27 218.68 27.32 C 218.78 27.63 219 27.99 219.51 28.39 C 220.01 28.8 220.79 29.27 221.5 29.66 C 222.21 30.06 222.85 30.38 223.18 30.55 C 223.24 30.58 223.29 30.61 223.33 30.64 C 223.37 30.61 223.42 30.58 223.48 30.55 C 223.81 30.38 224.45 30.06 225.17 29.66 C 225.88 29.27 226.66 28.8 227.16 28.39 C 227.66 27.99 227.88 27.63 227.98 27.32 C 228.08 27 228.06 26.72 228.01 26.18 C 227.96 25.64 227.88 24.85 227.78 24.12 C 227.68 23.38 227.56 22.7 227.42 21.83 C 227.28 20.96 227.13 19.88 227.05 19.36 C 226.97 18.82 226.96 18.84 227.08 18.77 C 227.19 18.69 227.43 18.54 227.86 18.29 C 228.28 18.04 228.88 17.7 229.91 17.16 C 230.94 16.62 232.4 15.87 233.97 15.08 C 235.53 14.3 237.2 13.47 238.84 12.56 C 240.47 11.64 242.07 10.62 243.47 9.71 C 244.86 8.8 246.06 7.98 247.34 7.03 C 248.62 6.07 249.99 4.98 251.11 3.99 C 252.23 3.01 253.12 2.12 253.82 1.43 C 254.52 0.73 255.04 0.21 255.17 0.25 C 255.3 0.29 255.04 0.87 254.67 1.53" fill="#ffffff" fill-rule="evenodd"/>
  <path d="M 0.09 45.1 H 85.13 V 50.82 H 0.09 Z" fill="#FF7338"/>
  <path d="M 85 45.1 H 170.29 V 50.82 H 85 Z" fill="#ffffff"/>
  <path d="M 170.16 45.1 H 255.21 V 50.82 H 170.16 Z" fill="#168A42"/>
</svg>
