<svg xmlns="http://www.w3.org/2000/svg" viewBox="0 0 100 100" aria-label="Invincible Mark">
  <!-- Bull horns mark (white) — collapsed sidebar ke liye compact -->
  <g transform="translate(1, 16) scale(0.408)" fill="#ffffff">
    <path d="M 120 34 C 82 34 44 24 8 6 C 26 30 60 52 100 56 C 108 57 116 52 120 44 Z"/>
    <path d="M 120 34 C 158 34 196 24 232 6 C 214 30 180 52 140 56 C 132 57 124 52 120 44 Z"/>
    <path d="M 103 48 C 112 42 128 42 137 48 L 120 90 Z"/>
  </g>
  <!-- Neeche chhoti tricolor bars -->
  <rect x="14" y="80" width="30" height="7" rx="2" fill="#f57c00"/>
  <rect x="56" y="80" width="30" height="7" rx="2" fill="#43a047"/>
</svg>
