<svg xmlns="http://www.w3.org/2000/svg" viewBox="0 0 640 190" aria-label="Invincible Logo">
  <!-- INVINCIBLE text — textLength fix karta hai ki text hamesha poora fit ho, kabhi cut na ho -->
  <text x="8" y="118"
        font-family="Arial Black, Impact, Helvetica, sans-serif"
        font-weight="900" font-size="92" fill="#1a1a1a"
        letter-spacing="-2" textLength="470" lengthAdjust="spacingAndGlyphs">INVINCIBLE</text>

  <!-- Bull horns mark (wings-style, asli logo jaisa) -->
  <g transform="translate(489, 22) scale(0.62)" fill="#1a1a1a">
    <path d="M 120 34 C 82 34 44 24 8 6 C 26 30 60 52 100 56 C 108 57 116 52 120 44 Z"/>
    <path d="M 120 34 C 158 34 196 24 232 6 C 214 30 180 52 140 56 C 132 57 124 52 120 44 Z"/>
    <path d="M 103 48 C 112 42 128 42 137 48 L 120 90 Z"/>
  </g>

  <!-- Saffron (orange) bar — left -->
  <rect x="8" y="146" width="252" height="14" fill="#f57c00"/>
  <!-- Green bar — right -->
  <rect x="380" y="146" width="252" height="14" fill="#2e7d32"/>
</svg>
